PathFileType	4	(X/Y/Z)	C:\Users\Graham\Documents\MATLAB\MOtoNMS_v2_2\MyData\ElaboratedData\S1\17-05-18\dynamicElaborations\rightStSt\\ET2\ET2.trc
DataRate	CameraRate	NumFrames	NumMarkers	Units	OrigDataRate	DataStartFrame
100	100	7	29	mm	100	106
Frame#	Time	V_Sacral			R_ASIS			L_ASIS			R_Knee_Lat			R_Thigh_Upper			R_Thigh_Front			R_Thigh_Rear			L_Knee_Lat			L_Thigh_Upper			L_Thigh_Front			L_Thigh_Rear			R_Ankle_Lat			R_Shank_Upper			R_Shank_Front			R_Shank_Rear			L_Ankle_Lat			L_Shank_Upper			L_Shank_Front			L_Shank_Rear			R_Heel			R_MTP1			R_MTP5			L_Heel			L_MTP1			L_MTP5			Clavicle			C7			R_Acromium			L_Acromium		
		X1	Y1	Z1	X2	Y2	Z2	X3	Y3	Z3	X4	Y4	Z4	X5	Y5	Z5	X6	Y6	Z6	X7	Y7	Z7	X8	Y8	Z8	X9	Y9	Z9	X10	Y10	Z10	X11	Y11	Z11	X12	Y12	Z12	X13	Y13	Z13	X14	Y14	Z14	X15	Y15	Z15	X16	Y16	Z16	X17	Y17	Z17	X18	Y18	Z18	X19	Y19	Z19	X20	Y20	Z20	X21	Y21	Z21	X22	Y22	Z22	X23	Y23	Z23	X24	Y24	Z24	X25	Y25	Z25	X26	Y26	Z26	X27	Y27	Z27	X28	Y28	Z28	X29	Y29	Z29	

122	1.210000	-46.877918	1005.413934	28.759126	272.608977	1013.206946	145.076638	255.111351	1009.055028	-109.523411	319.047741	532.902793	150.263850	296.450653	876.958602	172.187127	349.490569	766.354135	133.227520	302.349015	747.261264	192.794088	128.290538	505.239897	-137.509621	261.952754	815.289137	-122.393445	262.251955	698.264891	-70.713455	220.691107	696.452478	-145.569924	345.598183	110.408329	131.070923	389.394782	330.861322	109.037966	360.420408	220.279543	54.617745	372.423363	211.535313	134.488693	-178.947146	184.493852	-109.598665	24.362736	312.109051	-102.680176	-70.269210	245.780417	-47.528298	-81.529713	251.635067	-127.180192	271.690406	55.961659	78.838379	493.364521	70.790923	32.473786	492.681705	67.633139	113.255985	-259.084425	208.453288	-59.356517	-104.535212	57.210959	-28.356094	-122.859000	54.655822	-112.336829	280.863004	1443.881467	23.901857	141.208826	1554.639309	28.028610	230.069971	1471.035152	223.502525	218.677027	1483.644112	-183.765446	
123	1.220000	-46.132997	1006.135864	30.579012	273.685958	1014.113933	146.392066	255.314279	1010.106659	-108.155931	317.463037	532.830408	150.885602	297.215248	877.287974	173.688002	349.873320	766.520520	134.687502	302.334793	747.495604	193.982230	138.867121	504.687076	-138.486652	265.220680	817.489853	-121.576544	268.651295	700.155267	-70.697378	227.625759	697.703306	-145.871088	336.730918	110.085902	130.984689	384.469624	329.692758	109.300984	353.647182	219.683602	54.756838	365.534188	210.627911	134.561357	-174.810805	192.298849	-109.935705	31.220261	313.763375	-103.393743	-65.179469	250.206142	-48.084527	-76.494834	256.513804	-127.683289	262.230073	56.010599	78.912439	484.117038	69.196525	32.393883	483.460723	66.138334	113.113290	-252.916772	222.158111	-59.732871	-108.843199	59.648287	-28.030698	-127.558175	58.203529	-112.490132	281.387574	1444.988003	25.574770	141.443630	1555.520968	30.138988	231.360313	1472.068810	225.169397	218.515550	1484.930514	-181.846416	
124	1.230000	-45.617564	1006.977153	32.315894	274.560666	1015.004586	147.613804	255.308636	1011.131713	-106.891250	315.254641	532.683973	151.497535	297.983679	877.439782	175.409449	349.933017	766.406317	136.236803	301.945202	747.516145	195.256194	149.558711	504.368811	-139.387713	268.326499	819.791336	-120.948402	274.944835	702.291468	-70.747629	234.530983	699.123794	-146.265738	327.636456	109.821913	130.856370	379.052227	328.548174	109.697058	346.644329	219.125687	54.877476	358.146162	209.756253	134.687228	-169.983380	200.434603	-110.222093	38.557485	315.698551	-103.793565	-59.681740	255.029375	-48.504601	-70.747280	261.517048	-128.036799	252.666569	56.007689	78.964575	474.729483	67.988391	32.285926	474.063527	65.029288	112.914343	-245.901446	235.690885	-60.137266	-112.065348	62.585855	-27.754923	-131.027146	62.453886	-112.867519	281.784239	1446.077390	27.163354	141.550316	1556.425969	32.161873	232.521795	1473.107587	226.752257	218.224798	1486.176023	-180.022039	
125	1.240000	-45.309670	1007.952062	33.994519	275.251047	1015.879583	148.706358	255.140225	1012.163075	-105.762798	312.465180	532.494045	152.129318	298.679393	877.403272	177.231805	349.600289	765.997521	137.780191	301.147154	747.324984	196.548672	160.226983	504.383677	-140.188595	271.218711	822.210749	-120.474325	281.007726	704.695648	-70.819477	241.251786	700.757621	-146.696346	318.397441	109.602083	130.734910	373.208735	327.442431	110.263115	339.461918	218.607025	55.038985	350.346527	208.926483	134.909816	-164.584284	208.724458	-110.377186	46.266479	317.975383	-103.887875	-53.796626	260.192308	-48.747097	-64.379454	266.612945	-128.210058	243.057597	55.978593	79.010043	465.286828	67.099272	32.222682	464.577088	64.202384	112.743141	-238.318431	248.595109	-60.389849	-113.918764	65.955493	-27.621292	-132.985920	67.317040	-113.511545	282.053559	1447.151015	28.650742	141.538023	1557.363392	34.090293	233.548712	1474.135168	228.244726	217.788094	1487.371103	-178.310943	
126	1.250000	-45.181921	1009.070926	35.635565	275.773531	1016.748276	149.652622	254.861013	1013.240663	-104.783981	309.159539	532.295893	152.800461	299.181074	877.205041	179.019063	348.818633	765.333816	139.234477	299.929827	746.971803	197.801998	170.765311	504.822983	-140.886263	273.872697	824.779354	-120.099475	286.754260	707.385077	-70.873328	247.665196	702.654157	-147.112113	309.075824	109.415810	130.656712	367.004101	326.391123	110.996357	332.120495	218.132761	55.281696	342.239331	208.147927	135.245808	-158.708888	216.933834	-110.342992	54.266907	320.625072	-103.742090	-47.491363	265.572638	-48.807096	-57.473910	271.752588	-128.206459	233.439672	55.942046	79.060774	455.842974	66.457710	32.251699	455.063680	63.563036	112.662165	-230.440012	260.388178	-60.326887	-114.032679	69.681722	-27.724797	-133.129219	72.647988	-114.433799	282.200224	1448.220432	30.024226	141.424624	1558.348171	35.919739	234.440363	1475.146655	229.642689	217.198730	1488.525184	-176.725874	
127	1.260000	-45.205261	1010.335702	37.251546	276.141977	1017.625833	150.456263	254.517092	1014.400302	-103.946758	305.413605	532.122675	153.515604	299.358532	876.901400	180.644898	347.562199	764.496864	140.540860	298.314364	746.542436	198.973591	181.094531	505.757586	-141.491719	276.291714	827.534291	-119.762535	292.140084	710.367344	-70.882640	253.687632	704.859497	-147.477177	299.711389	109.257206	130.641920	360.494147	325.407878	111.854191	324.613629	217.710184	55.619335	333.936482	207.434024	135.682696	-152.413684	224.789436	-110.097385	62.507420	323.634854	-103.462255	-40.695466	270.989101	-48.715322	-50.098114	276.859134	-128.057525	223.829606	55.910487	79.124891	446.421054	65.994852	32.388142	445.558866	63.034877	112.701422	-222.492916	270.614734	-59.842024	-112.002051	73.679624	-28.136532	-131.157890	78.253185	-115.604147	282.231985	1449.304533	31.277112	141.233088	1559.396933	37.648785	235.200187	1476.147500	230.944938	216.460968	1489.663353	-175.271942	
128	1.270000	-45.352534	1011.737047	38.843995	276.367083	1018.529690	151.140058	254.138188	1015.664597	-103.224686	301.297821	531.997887	154.266166	299.109894	876.563178	182.017287	345.843664	763.588085	141.670474	296.353372	746.137464	200.037543	191.156657	507.226028	-142.021180	278.503052	830.509442	-119.411149	297.157841	713.637859	-70.838523	259.276750	707.406894	-147.775148	290.323668	109.124649	130.695508	353.719822	324.501493	112.769428	316.919758	217.346612	56.040860	325.542795	206.801245	136.186021	-145.704374	232.001828	-109.658797	70.965170	326.940326	-103.167427	-33.322131	276.219883	-48.526931	-42.298002	281.819849	-127.810474	214.230501	55.890983	79.206815	437.020350	65.650489	32.618468	436.074878	62.563678	112.858353	-214.622721	278.899741	-58.916765	-107.469165	77.843193	-28.876271	-126.821344	83.897827	-116.948193	282.158581	1450.425372	32.409936	140.987110	1560.523445	39.279619	235.835095	1477.150974	232.153730	215.589506	1490.820288	-173.945730	
